<?xml version="1.0" encoding="utf-8"?>
<!-- Generator: Adobe Illustrator 19.1.0, SVG Export Plug-In . SVG Version: 6.00 Build 0)  -->
<!DOCTYPE svg PUBLIC "-//W3C//DTD SVG 1.1//EN" "http://www.w3.org/Graphics/SVG/1.1/DTD/svg11.dtd">
<svg version="1.1" xmlns="http://www.w3.org/2000/svg" xmlns:xlink="http://www.w3.org/1999/xlink" x="0px" y="0px"
	 viewBox="0 0 96.25 72" style="enable-background:new 0 0 96.25 72;" xml:space="preserve" preserveAspectRatio="xMinYMin none">
<style type="text/css">
	.st0{fill:#42538C;}
	.st1{fill:none;stroke:#BE1E2D;stroke-miterlimit:10;}
	.st2{fill:#BE1E2D;}
	.st3{clip-path:url(#SVGID_2_);fill:#FFFFFF;}
	.st4{clip-path:url(#SVGID_4_);fill:#42538C;}
	.st5{clip-path:url(#SVGID_6_);fill:#282E58;}
	.st6{clip-path:url(#SVGID_8_);fill:#F9B900;}
	.st7{clip-path:url(#SVGID_10_);fill:#DEE2E5;}
	.st8{clip-path:url(#SVGID_12_);fill:#EFF1F2;}
	.st9{clip-path:url(#SVGID_14_);fill:#F7F8F9;}
	.st10{clip-path:url(#SVGID_16_);fill:#C9CDD0;}
	.st11{clip-path:url(#SVGID_18_);fill:#B3B7BA;}
	.st12{clip-path:url(#SVGID_20_);fill:#888C8F;}
	.st13{clip-path:url(#SVGID_22_);fill:#5C6063;}
	.st14{clip-path:url(#SVGID_24_);fill:#474B4E;}
	.st15{clip-path:url(#SVGID_26_);fill:#21272B;}
	.st16{clip-path:url(#SVGID_28_);fill:#111111;}
	.st17{clip-path:url(#SVGID_30_);}
	.st18{clip-path:url(#SVGID_32_);fill:#C9CDD0;}
	.st19{clip-path:url(#SVGID_32_);}
	.st20{fill:#EFF1F2;}
	.st21{fill:#FFFFFF;}
	.st22{fill:#F9B900;}
	.st23{fill:#282E58;}
	.st24{fill:#C9CDD0;}
	.st25{fill-rule:evenodd;clip-rule:evenodd;fill:#42538C;}
	.st26{fill:none;stroke:#C9CDD0;stroke-width:2;stroke-linecap:round;stroke-miterlimit:10;}
	.st27{fill:none;stroke:#BE1E2D;stroke-width:3;stroke-miterlimit:10;}
	.st28{fill:none;stroke:#C9CDD0;stroke-width:0.5;stroke-miterlimit:10;}
	.st29{enable-background:new    ;}
	.st30{clip-path:url(#SVGID_34_);}
	.st31{clip-path:url(#SVGID_36_);}
	.st32{clip-path:url(#SVGID_38_);fill:#42538C;}
	.st33{clip-path:url(#SVGID_40_);fill:#C9CDD0;}
	.st34{clip-path:url(#SVGID_40_);}
</style>
<g id="Layer_2">
</g>
<g id="Layer_1">
</g>
<g id="Layer_3">
	<g>
		<path class="st0" d="M24.73,17.25c-0.26-0.01-0.53,0.02-0.77,0.1c-0.4,0.13-0.78,0.37-1.07,0.76c-0.67,0.9-0.62,2.25,0.48,3.07
			c1.14,0.85,2.44,0.5,3.11-0.39c0.33-0.44,0.47-0.92,0.47-1.36c0-0.45-0.15-0.88-0.43-1.19l-1.53,2.04l-0.62-0.46l2.18-2.92
			c0.3,0.23,0.67,0.58,0.91,1.01c0.62,1.14,0.36,2.48-0.31,3.37c-1.05,1.4-2.95,1.68-4.34,0.64c-1.42-1.06-1.61-2.95-0.58-4.33
			c0.76-1.02,2.06-1.48,3.14-1.2L24.73,17.25z"/>
		<path class="st0" d="M29.81,18.02l-0.79,0.65l-1.9-6.11l0.66-0.54l5.61,3.04L32.6,15.7l-1.32-0.72l-1.95,1.61L29.81,18.02z
			 M28.12,13.15l0.93,2.69l1.55-1.28L28.12,13.15z"/>
		<path class="st0" d="M31.34,9.47l1.49-0.77c0.82-0.42,1.31-0.53,1.69-0.48c0.58,0.06,1.13,0.47,1.43,1.06
			c0.19,0.37,0.27,0.78,0.22,1.16c-0.08,0.52-0.35,0.82-0.72,1.1l2.25,1.32l-0.89,0.46l-2.67-1.63l0.18-0.1
			c0.36-0.19,0.8-0.43,0.94-0.77c0.13-0.34,0.09-0.71-0.08-1.05c-0.18-0.36-0.53-0.62-0.91-0.66c-0.3-0.03-0.61,0.1-0.98,0.29
			l-0.72,0.37l2.33,4.52l-0.84,0.43L31.34,9.47z"/>
		<path class="st0" d="M39.06,12.38l-0.99,0.26l0.85-6.34l0.83-0.22l3.82,5.12l-0.99,0.26l-0.9-1.21l-2.45,0.64L39.06,12.38z
			 M39.58,7.26l-0.29,2.83l1.95-0.51L39.58,7.26z"/>
		<path class="st0" d="M48.3,9.65l-0.09-4.5l0.91-0.02l0.1,5.92l-0.86,0.01l-3.17-4.46l0.09,4.51l-0.91,0.02l-0.1-5.92l0.89-0.01
			L48.3,9.65z"/>
		<path class="st0" d="M52.14,6.39L50.8,6.15l0.15-0.82l3.61,0.64L54.4,6.79l-1.34-0.24l-0.89,5.01l-0.93-0.17L52.14,6.39z"/>
		<path class="st0" d="M56.01,6.41l0.9,0.28l-1.75,5.66l-0.9-0.28L56.01,6.41z"/>
		<path class="st0" d="M58.89,7.37l3.01,1.4l-0.35,0.76l-2.15-1l-0.71,1.53l2.12,0.99l-0.35,0.75l-2.12-0.99l-0.74,1.59l2.15,1
			l-0.35,0.76l-3.01-1.4L58.89,7.37z"/>
		<path class="st0" d="M66.45,11.69l1.36,1.23c0.59,0.53,1.23,1.29,1.15,2.35c-0.03,0.7-0.34,1.34-0.86,1.91
			c-1.16,1.28-2.69,1.57-4.23,0.17l-1.4-1.28L66.45,11.69z M63.72,16.09l0.74,0.67c1.03,0.94,2.1,0.71,2.93-0.2
			c0.38-0.42,0.64-0.93,0.66-1.44c0.01-0.48-0.16-0.99-0.72-1.5l-0.75-0.68L63.72,16.09z"/>
		<path class="st0" d="M72.1,17.53l-3.03,2.12c-0.3,0.21-0.56,0.39-0.72,0.77c-0.13,0.3-0.1,0.68,0.14,1.02
			c0.23,0.33,0.57,0.5,0.89,0.47c0.4-0.01,0.67-0.2,0.99-0.42l3.03-2.12l0.54,0.77l-3.03,2.12c-0.64,0.46-1.2,0.7-1.86,0.52
			c-0.46-0.11-0.9-0.38-1.23-0.86c-0.24-0.35-0.49-0.92-0.4-1.47c0.09-0.78,0.53-1.17,1.12-1.58l3.03-2.12L72.1,17.53z"/>
	</g>
	<g>
		<path class="st0" d="M20.92,50.72l4.9-3.32l0.73,1.07l-2.76,4.09l4.81-1.07l0.72,1.07l-4.9,3.32l-0.49-0.72l4.15-2.78l-5.23,1.18
			l-0.35-0.51l3.03-4.42l-4.12,2.82L20.92,50.72z"/>
		<path class="st0" d="M30.05,53.13l2.45,2.24l-0.56,0.61l-1.75-1.6l-1.13,1.24l1.72,1.58l-0.56,0.61l-1.72-1.58l-1.18,1.29
			l1.75,1.6l-0.56,0.61l-2.45-2.24L30.05,53.13z"/>
		<path class="st0" d="M33.28,55.89l0.77,0.54l-3.39,4.86l-0.78-0.54L33.28,55.89z"/>
		<path class="st0" d="M35.02,57.08l0.83,0.44l-2.39,4.49l1.84,0.98l-0.39,0.73l-2.68-1.42L35.02,57.08z"/>
		<path class="st0" d="M38.21,58.68l0.89,0.31l-1.68,4.8l1.97,0.69l-0.28,0.79l-2.86-1L38.21,58.68z"/>
		<path class="st0" d="M41.56,59.8l3.26,0.57l-0.14,0.82l-2.33-0.41l-0.29,1.65l2.3,0.4l-0.14,0.81l-2.3-0.4l-0.3,1.72l2.33,0.41
			l-0.14,0.82l-3.26-0.57L41.56,59.8z"/>
		<path class="st0" d="M46.65,60.44l0.08,3.69c0.01,0.37,0.02,0.69,0.24,1.03c0.18,0.28,0.51,0.46,0.92,0.45
			c0.41-0.01,0.73-0.2,0.88-0.47c0.22-0.34,0.21-0.67,0.2-1.05l-0.08-3.69l0.94-0.02l0.08,3.69c0.02,0.78-0.09,1.39-0.6,1.83
			c-0.35,0.33-0.81,0.54-1.4,0.55c-0.42,0.01-1.03-0.1-1.44-0.48c-0.6-0.51-0.68-1.09-0.69-1.81l-0.08-3.69L46.65,60.44z"/>
		<path class="st0" d="M50.7,60.25l1.63-0.37c0.91-0.21,1.4-0.19,1.75-0.04c0.55,0.2,0.97,0.74,1.12,1.39
			c0.09,0.41,0.06,0.82-0.08,1.17c-0.2,0.48-0.54,0.71-0.97,0.88l1.84,1.84l-0.97,0.22l-2.17-2.25l0.2-0.05
			c0.4-0.09,0.88-0.22,1.1-0.51c0.21-0.29,0.27-0.66,0.18-1.03c-0.09-0.39-0.36-0.73-0.71-0.86c-0.28-0.1-0.61-0.06-1.02,0.04
			l-0.79,0.18l1.13,4.96l-0.92,0.21L50.7,60.25z"/>
		<path class="st0" d="M58.94,57.35c0.8-0.46,1.2-0.55,1.64-0.48c0.52,0.07,1.01,0.45,1.29,0.94c0.28,0.49,0.36,1.13,0.19,1.57
			c-0.19,0.47-0.47,0.78-1.18,1.18l-0.72,0.41l1.08,1.88l-0.82,0.47l-2.94-5.14L58.94,57.35z M59.74,60.26l0.71-0.4
			c0.33-0.19,0.56-0.36,0.7-0.63c0.14-0.24,0.14-0.6-0.05-0.95c-0.2-0.35-0.51-0.52-0.79-0.52c-0.31-0.01-0.57,0.11-0.92,0.3
			l-0.68,0.39L59.74,60.26z"/>
		<path class="st0" d="M61.32,55.89l1.27-1.09c0.7-0.61,1.15-0.82,1.53-0.86c0.58-0.08,1.21,0.2,1.64,0.7
			c0.27,0.32,0.44,0.7,0.48,1.07c0.05,0.52-0.15,0.88-0.44,1.24l2.49,0.75l-0.76,0.65l-2.98-0.96l0.16-0.14
			c0.31-0.27,0.67-0.6,0.73-0.97c0.05-0.36-0.07-0.71-0.33-1c-0.26-0.3-0.66-0.47-1.04-0.43c-0.3,0.05-0.57,0.24-0.89,0.51
			l-0.61,0.53l3.33,3.85l-0.71,0.62L61.32,55.89z"/>
		<path class="st0" d="M64.86,52.61l0.62-0.71l4.47,3.88l-0.62,0.71L64.86,52.61z"/>
		<path class="st0" d="M69.44,51.32l-3.4,0.08l0.57-0.91l2.53-0.01l-1.08-2.28l0.57-0.9l1.41,3.1l3.69-0.08l-0.57,0.91l-2.86,0.03
			l1.23,2.56l-0.56,0.89L69.44,51.32z"/>
	</g>
	<g>
		<path class="st24" d="M14.44,33.09c1.48-16.8,15.62-30.03,32.81-30.03c17.18,0,31.33,13.23,32.81,30.03h2.01
			C80.57,15.18,65.53,1.06,47.24,1.06c-18.29,0-33.33,14.12-34.81,32.03H14.44z"/>
		<path class="st24" d="M78.69,45.83c-4.19,13.38-16.7,23.12-31.45,23.12c-14.74,0-27.26-9.74-31.45-23.12h-2.08
			c4.26,14.5,17.67,25.12,33.53,25.12c15.86,0,29.27-10.62,33.53-25.12H78.69z"/>
	</g>
	<g>
		<g>
			<path class="st22" d="M54.81,29.48l2.6-3.76c0.01-0.02,0.03-0.03,0.05-0.03l4.66,0c0.03,0,0.06-0.02,0.06-0.06
				c0.01-0.11,0.01-0.23,0.01-0.35c0-2.82-2.37-5.09-5.23-4.91c-2.47,0.15-4.47,2.18-4.6,4.65c-0.1,1.89,0.87,3.56,2.36,4.46
				C54.75,29.52,54.79,29.51,54.81,29.48z"/>
			<path class="st23" d="M72.67,26.48l-3.69,5.32c-0.03,0.04,0,0.1,0.05,0.1h7.4c0.05,0,0.08-0.06,0.05-0.1l-3.71-5.32
				C72.74,26.45,72.69,26.45,72.67,26.48z"/>
			<g id="XMLID_34_">
				<g>
					<path class="st0" d="M53.82,33.89h-0.91c-0.05,0-0.08-0.06-0.05-0.1l5.1-7.35c0.01-0.02,0.03-0.03,0.05-0.03h5.1h7.01h1.51
						c0.05,0,0.08,0.06,0.05,0.1l-3.21,4.62l-1.88,2.73c-0.01,0.02-0.03,0.03-0.05,0.03H54.49H53.82z"/>
				</g>
			</g>
		</g>
		<path class="st0" d="M23.72,42.97H21.7c-0.03,0-0.06-0.03-0.06-0.06V42.4c0-0.06-0.07-0.08-0.11-0.04
			c-0.43,0.58-1.24,0.85-2.01,0.85c-2.28,0-3.61-1.78-3.61-3.84c0-2.35,1.69-3.83,3.61-3.83c1.05,0,1.69,0.45,2.01,0.86
			c0.04,0.04,0.11,0.02,0.11-0.04v-0.52c0-0.03,0.03-0.06,0.06-0.06h2.02c0.03,0,0.06,0.03,0.06,0.06v7.05
			C23.78,42.95,23.75,42.97,23.72,42.97z M18.05,39.42c0,0.66,0.49,1.8,1.78,1.8c0.76,0,1.23-0.36,1.5-0.8
			c0.18-0.28,0.27-0.59,0.3-0.92c0.03-0.32-0.04-0.65-0.18-0.94c-0.23-0.49-0.72-1-1.63-1c-1.23,0-1.77,1.03-1.77,1.85V39.42z"/>
		<path class="st0" d="M28.38,37.81c-0.03,0-0.06-0.02-0.06-0.05c-0.02-0.18-0.1-0.49-0.67-0.49c-0.45,0-0.61,0.28-0.61,0.48
			c0,0.32,0.53,0.54,1.1,0.71c1.22,0.34,2.51,0.7,2.51,2.25c0,1.58-1.33,2.51-2.92,2.51c-1.07,0-2.69-0.48-2.91-2.31
			c0-0.04,0.02-0.07,0.06-0.07h2.01c0.03,0,0.05,0.02,0.06,0.05c0.12,0.61,0.72,0.61,0.81,0.61c0.36,0,0.75-0.21,0.75-0.56
			c0-0.49-0.53-0.56-1.9-1.09c-0.93-0.3-1.71-0.91-1.71-1.87c0-1.49,1.29-2.43,2.78-2.43c0.93,0,2.53,0.37,2.75,2.19
			c0,0.04-0.02,0.07-0.06,0.07H28.38z"/>
		<path class="st0" d="M39.06,42.97h-2.02c-0.03,0-0.06-0.03-0.06-0.06V42.4c0-0.06-0.07-0.08-0.11-0.04
			c-0.43,0.58-1.24,0.85-2.01,0.85c-2.28,0-3.61-1.78-3.61-3.84c0-2.35,1.69-3.83,3.61-3.83c1.05,0,1.69,0.45,2.01,0.86
			c0.04,0.04,0.11,0.02,0.11-0.04v-0.52c0-0.03,0.03-0.06,0.06-0.06h2.02c0.03,0,0.06,0.03,0.06,0.06v7.05
			C39.12,42.95,39.09,42.97,39.06,42.97z M33.39,39.42c0,0.66,0.49,1.8,1.78,1.8c0.76,0,1.23-0.36,1.5-0.8
			c0.18-0.28,0.27-0.59,0.3-0.92c0.03-0.32-0.04-0.65-0.18-0.94c-0.23-0.49-0.72-1-1.63-1c-1.23,0-1.77,1.03-1.77,1.85V39.42z"/>
		<path class="st0" d="M40.75,35.8h1.88c0.03,0,0.06,0.03,0.06,0.06v0.5c0,0.06,0.07,0.08,0.11,0.04c0.07-0.09,0.18-0.22,0.33-0.34
			c0.31-0.26,0.81-0.5,1.56-0.5c0.49,0,1.11,0.13,1.64,0.69c0.14,0.14,0.26,0.3,0.38,0.51c0.02,0.04,0.08,0.04,0.1,0.01
			c0.13-0.19,0.28-0.38,0.46-0.54c0.43-0.39,1.01-0.66,1.76-0.66c0.5,0,1.31,0.12,1.89,0.72c0.67,0.71,0.78,1.19,0.78,2.78v3.86
			c0,0.03-0.03,0.06-0.06,0.06h-2.02c-0.03,0-0.06-0.03-0.06-0.06v-3.75c0-0.3,0-0.69-0.14-1.01c-0.13-0.34-0.4-0.58-0.96-0.58
			c-0.59,0-0.89,0.27-1.03,0.59c-0.16,0.32-0.16,0.69-0.16,0.89v3.86c0,0.03-0.03,0.06-0.06,0.06h-2.02c-0.03,0-0.06-0.03-0.06-0.06
			v-3.84c0-0.19,0-0.57-0.13-0.89c-0.14-0.34-0.4-0.61-0.94-0.61c-0.61,0-0.91,0.28-1.06,0.63c-0.16,0.35-0.16,0.74-0.16,0.96v3.75
			c0,0.03-0.03,0.06-0.06,0.06h-2.02c-0.03,0-0.06-0.03-0.06-0.06v-7.05C40.69,35.82,40.71,35.8,40.75,35.8z"/>
		<path class="st0" d="M59.46,42.97h-1.88c-0.03,0-0.06-0.03-0.06-0.06V42.4c0-0.06-0.07-0.08-0.11-0.04
			c-0.27,0.36-0.76,0.86-1.88,0.86c-2.43,0-2.68-1.97-2.68-2.94v-4.43c0-0.03,0.03-0.06,0.06-0.06h2.02c0.03,0,0.06,0.03,0.06,0.06
			v3.86c0,0.79,0.17,1.49,1.14,1.49c1.07,0,1.24-0.76,1.24-1.5v-3.84c0-0.03,0.03-0.06,0.06-0.06h2.02c0.03,0,0.06,0.03,0.06,0.06
			v7.05C59.52,42.95,59.49,42.97,59.46,42.97z"/>
		<path class="st0" d="M61.13,35.8h1.88c0.03,0,0.06,0.03,0.06,0.06v0.51c0,0.06,0.07,0.08,0.11,0.04c0.27-0.36,0.76-0.86,1.87-0.86
			c2.42,0,2.66,1.97,2.66,2.94v4.43c0,0.03-0.03,0.06-0.06,0.06h-2.02c-0.03,0-0.06-0.03-0.06-0.06v-3.86
			c0-0.79-0.17-1.49-1.12-1.49c-1.06,0-1.23,0.76-1.23,1.5v3.84c0,0.03-0.03,0.06-0.06,0.06h-2.02c-0.03,0-0.06-0.03-0.06-0.06
			v-7.05C61.07,35.82,61.09,35.8,61.13,35.8z"/>
		<path class="st0" d="M76.44,42.97h-1.92c-0.03,0-0.06-0.03-0.06-0.06v-0.53c0-0.06-0.07-0.08-0.11-0.04
			c-0.26,0.34-0.82,0.86-2.06,0.86c-2.17,0-3.59-1.68-3.59-3.84c0-2.43,1.73-3.81,3.56-3.81c1.11,0,1.72,0.48,2,0.75
			c0.04,0.04,0.1,0.01,0.1-0.04v-0.63v-2.38c0-0.03,0.03-0.06,0.06-0.06h2.02c0.03,0,0.06,0.03,0.06,0.06v9.66
			C76.5,42.95,76.47,42.97,76.44,42.97z M70.83,39.37c0,1.1,0.79,1.84,1.8,1.84c0.52,0,1-0.21,1.33-0.54
			c0.34-0.34,0.53-0.8,0.5-1.33c0-0.52-0.21-0.96-0.53-1.27c-0.32-0.32-0.78-0.5-1.28-0.5c-1.24,0-1.82,0.97-1.82,1.8V39.37z"/>
		<path class="st0" d="M77.5,39.37c0-1.75,1.25-3.8,3.87-3.8c2.61,0,3.87,2.06,3.87,3.81c0,1.76-1.25,3.81-3.87,3.81
			c-2.61,0-3.87-2.06-3.87-3.81V39.37z M79.64,39.39c0,1.03,0.79,1.8,1.72,1.8c0.93,0,1.72-0.76,1.72-1.81
			c0-1.05-0.79-1.81-1.72-1.81c-0.93,0-1.72,0.76-1.72,1.81V39.39z"/>
		<path class="st0" d="M14.51,40.65c-0.02-0.03-0.07-0.03-0.09,0c-0.26,0.31-0.66,0.56-1.29,0.56c-1.02,0-1.71-0.78-1.71-1.82
			c0-0.52,0.17-0.98,0.47-1.32c0.31-0.34,0.74-0.53,1.24-0.5c0.6,0,0.99,0.23,1.25,0.54c0.03,0.03,0.07,0.03,0.09,0l1.15-1.54
			c0.02-0.03,0.02-0.06-0.01-0.08c-0.68-0.57-1.57-0.92-2.56-0.92c-2.15,0-3.79,1.71-3.79,3.81c0,2.13,1.67,3.84,3.84,3.84
			c1.02,0,1.89-0.37,2.55-0.95c0.02-0.02,0.03-0.06,0.01-0.08L14.51,40.65z"/>
	</g>
</g>
</svg>
